<?xml version="1.0" encoding="UTF-8"?>
<svg id="Capa_2" xmlns="http://www.w3.org/2000/svg" viewBox="0 0 999.08 128.84">
  <defs>
    <style>
      .cls-1 {
        fill: #d0a344;
      }

      .cls-2 {
        fill: #1e3c60;
      }
    </style>
  </defs>
  <g id="cosmereFooter">
    <path id="footerBlue" class="cls-2" d="M999.08,117.06l-94.24-.63s-15.07-14.81-20.9-20.62c14.94-20.74,15.3-41.78.53-62.87,5.93-5.85,20.89-21.3,20.89-21.3l93.72.58v104.84Z"/>
    <path id="footerGold" class="cls-1" d="M899.14,128.84l-24.26-24.61s-10.94,8.68-28.17,8.68c-24.48,0-35.94-15.92-35.94-15.92l-757.26-.67-8.57,8.9-2.51-2.05,9.62-9.97,764.69-.04-2.1-2.95-764.02-.09-10.48,10.73-3.84-3.65,12.03-12.98,754.27.17s-4.34-9.78-4.34-20.95,4.48-19.53,4.48-19.53l-768.97-.58-25.52,25.52-4.05-4.14,26.43-26.72,784.1.09,2.6-3.14-787.99.05L2.33,62.38l-2.33-2.24,27.9-28.14,782.94-.07s12.71-15.95,35.86-15.95c18.86.38,28.41,9.17,28.41,9.17L899.3.03l99.79-.03v4.55l-98.64-.81-27.65,27.7,3.02,2.32,27.02-26.81,96.26.62v5.27l-93.37-.65-20.8,21.05s11.15,13.13,11.15,30.21-11.47,32.45-11.47,32.45l20.5,20.2,94-.05v6.03l-96.92.05-26.96-27.44-2.57,2.51,27.27,27.95,99.19-.05v3.77h-99.94ZM846.71,29.05c-20.16,0-35.59,15.35-35.59,34.39s12.64,36.67,35.59,36.67,36.51-17.3,36.51-36.67-16.35-34.39-36.51-34.39ZM882.02,35.5l-2.58,2.88s9.03,8.67,9.03,25.06-9.03,27.47-9.03,27.47l2.33,1.9s10.43-11.39,10.43-29.37-10.18-27.94-10.18-27.94ZM816.07,96.99s10.78,12.89,30.63,12.89c13.03,0,24.18-7.21,25.44-7.83-.4-.8-2.16-2.92-2.16-2.92,0,0-8.79,7-23.29,7s-25.06-9.14-25.06-9.14h-5.57ZM816.16,31.93l5.62.05s10.64-9.05,24.93-9.29,23.1,6.95,23.1,6.95l2.71-2.86s-11.62-7.71-25.81-7.71c-18.29,0-30.55,12.86-30.55,12.86ZM810.43,84.32s-4.76-11.54-4.76-20.88,4.89-19.53,4.89-19.53h-4.05s-5.17,7.76-5.17,19.53,4.87,20.88,4.87,20.88h4.22Z"/>
  </g>
</svg>