<?xml version="1.0" encoding="UTF-8"?>
<svg id="Capa_2" xmlns="http://www.w3.org/2000/svg" xmlns:xlink="http://www.w3.org/1999/xlink" viewBox="0 0 386.86 9.74">
  <defs>
    <style>
      .cls-1 {
        fill: none;
      }

      .cls-2 {
        fill: #c89b56;
      }

      .cls-3 {
        clip-path: url(#clippath);
      }
    </style>
    <clipPath id="clippath">
      <rect class="cls-1" width="386.86" height="9.74"/>
    </clipPath>
  </defs>
  <g id="Capa_1-2" data-name="Capa_1">
    <g class="cls-3">
      <path class="cls-2" d="M1.38,8.18c2.25-1.6,2.9-2.68,5.35-2.68h369.1c1.18,0,2.82-.3,3.97,0,1.31.34,2.69,1.76,3.82,2.54.27.19,1.96-1.81,2.07-1.74-2.03-1.4-2.93-2.54-5.2-2.54H11.03c-1.11,0-2.66-.29-3.75,0-1.43.37-2.96,2.01-4.17,2.87-.49.35-1,.74-1.43,1.17-.08.09-.71.67-.31.38"/>
    </g>
  </g>
</svg>