<?xml version="1.0" encoding="UTF-8"?>
<svg id="Capa_2" xmlns="http://www.w3.org/2000/svg" viewBox="0 0 581.61 758.67">
  <defs>
    <style>
      .cls-1 {
        fill: #cda451;
        fill-rule: evenodd;
      }
    </style>
  </defs>
  <g id="inner_cover_lining">
    <path id="Lining" class="cls-1" d="M262.22,32.09c.01-15.91,12.96-28.85,28.87-28.85s28.86,12.94,28.87,28.85c-.01,15.91-12.96,28.85-28.87,28.85s-28.86-12.94-28.87-28.85M259.02,32.07s0,.01,0,.02c0,0,0,.01,0,.02,0,17.71,14.36,32.07,32.07,32.07s32.07-14.36,32.07-32.07c0,0,0-.01,0-.02,0,0,0-.01,0-.02,0-17.71-14.36-32.07-32.07-32.07s-32.07,14.36-32.07,32.07M468.43,300.9c0-110.57-93.25-177.82-176.6-177.82s-177.82,63.92-177.82,177.79c0,131.01,124.11,169.57,124.11,169.57v32.46l53.71,30.59,52.25-30.59v-32.46s124.35-36.68,124.35-169.54ZM63.16,697.91l-57.89,57.65h571.08l-57.89-57.65H63.16ZM578.55,753.41c0-1.71-.02-101.71-.02-103.18v-.02c0-29.05-4.26-57.45-12.67-84.77-10.44,30.4-25.98,58.75-45.26,83.66l.02,46.61,57.93,57.69ZM520.6,644.04c14.12-18.75,26.09-39.34,35.3-61.12,3.12-7.37,5.9-14.84,8.38-22.4-2.48-7.56-5.26-15.04-8.38-22.42-9.21-21.78-21.18-42.38-35.29-61.12v167.07ZM578.53,607.96v-94.89c-2.37,16.29-6.09,32.15-11.03,47.45,4.95,15.3,8.66,31.16,11.03,47.45ZM578.53,470.83c0-29.09-4.27-57.53-12.7-84.87-10.44,30.37-25.96,58.71-45.23,83.6v2.34c19.29,24.92,34.82,53.29,45.26,83.7,1.05-3.41,2.04-6.85,2.96-10.29,6.45-24.12,9.7-49.04,9.7-74.45v-.02ZM578.53,333.49c-2.38,16.32-6.1,32.21-11.07,47.54,4.97,15.33,8.69,31.21,11.07,47.53v-95.08ZM565.83,376.14s.03-.09.04-.13c1.03-3.35,2-6.71,2.9-10.09,0-.03.02-.06.02-.08,6.47-24.16,9.73-49.11,9.73-74.56v-.02c0-2.95-.05-5.9-.14-8.83,0-.29-.02-.57-.03-.86-.09-2.6-.21-5.2-.36-7.79-.03-.44-.05-.88-.08-1.31-.17-2.66-.37-5.31-.61-7.95-.02-.19-.03-.37-.05-.56-.27-2.93-.59-5.86-.95-8.78,0-.04-.01-.09-.02-.13-.29-2.3-.6-4.59-.94-6.88-.07-.45-.15-.9-.22-1.35-.29-1.88-.59-3.75-.91-5.61-.13-.76-.28-1.52-.42-2.28-.28-1.55-.57-3.1-.88-4.65-.2-1-.42-2-.64-3-.27-1.29-.54-2.59-.83-3.88-.27-1.19-.56-2.38-.85-3.57-.26-1.09-.52-2.18-.79-3.27-.34-1.34-.7-2.66-1.06-3.99-.25-.94-.49-1.88-.76-2.81-.4-1.44-.83-2.87-1.25-4.3-.24-.82-.48-1.64-.73-2.46-.46-1.52-.95-3.03-1.44-4.53-.24-.73-.47-1.47-.71-2.2-.52-1.56-1.07-3.11-1.61-4.67-.24-.68-.47-1.35-.71-2.03-.57-1.58-1.16-3.15-1.76-4.72-.25-.65-.48-1.29-.74-1.94-.61-1.57-1.25-3.14-1.89-4.7-.42-1.02-.82-2.05-1.25-3.06-1.76-4.17-3.62-8.28-5.57-12.34-.06-.12-.12-.25-.18-.38-.99-2.06-2.01-4.11-3.05-6.15-.12-.24-.25-.47-.37-.71-.9-1.76-1.82-3.51-2.76-5.24-.29-.54-.6-1.08-.89-1.61-.78-1.43-1.57-2.85-2.38-4.27-.36-.63-.73-1.25-1.09-1.87-.77-1.32-1.53-2.63-2.32-3.94-.39-.65-.8-1.3-1.2-1.95-.78-1.27-1.56-2.53-2.36-3.78-.41-.65-.84-1.3-1.26-1.95-.8-1.24-1.62-2.48-2.44-3.71-.43-.64-.86-1.27-1.29-1.9-.84-1.24-1.7-2.47-2.56-3.7-.43-.61-.86-1.21-1.29-1.82-.89-1.25-1.8-2.49-2.71-3.72-.42-.57-.84-1.14-1.27-1.7-.95-1.27-1.92-2.53-2.9-3.78-.4-.52-.8-1.03-1.21-1.54-1.04-1.31-2.09-2.61-3.15-3.91-.36-.44-.72-.89-1.08-1.33-1.15-1.39-2.32-2.77-3.5-4.14-.29-.34-.57-.67-.86-1.01-1.34-1.54-2.69-3.06-4.06-4.58-.14-.16-.28-.32-.43-.48-3.11-3.41-6.3-6.76-9.58-10.04-1.63-1.63-3.28-3.22-4.94-4.81-1.14-1.08-2.29-2.15-3.44-3.21-2.94-2.71-5.91-5.38-8.94-7.96-.09-.08-.18-.15-.27-.22-1.74-1.48-3.51-2.93-5.28-4.37-.31-.25-.61-.5-.92-.75-1.84-1.47-3.7-2.93-5.57-4.36-.22-.17-.45-.34-.67-.5-1.87-1.42-3.75-2.81-5.65-4.18-.09-.07-.18-.14-.28-.2-1.99-1.43-4.01-2.83-6.03-4.21-.22-.15-.44-.3-.66-.44-2.04-1.38-4.09-2.73-6.16-4.05-38.94,8.15-80.15,13.31-122.9,15.03,111.97,15.65,198.15,111.78,198.15,228.06,0,0,0,.02,0,.03,0,0,0,0,0,.01,0,.31,0,.7-.01,1.07,19.36,24.96,34.76,53.15,45.24,83.62ZM441.58,45.97c-12.41-7.66-25.42-14.39-38.98-20.12-1.36-.57-2.72-1.13-4.08-1.68-.69-.28-1.37-.55-2.06-.83-1.42-.56-2.85-1.12-4.27-1.66-.14-.05-.29-.1-.43-.16-1.19-.45-2.39-.88-3.59-1.31-.68-.24-1.36-.49-2.04-.73-.07-.03-.15-.05-.22-.08-1.35-.48-2.71-.95-4.07-1.4-.5-.17-1.01-.33-1.51-.49-.87-.29-1.75-.57-2.62-.85-.57-.18-1.14-.36-1.71-.54-.39-.12-.77-.24-1.15-.35-1.15-.35-2.29-.7-3.44-1.03-.66-.19-1.33-.38-1.99-.57-.76-.22-1.52-.43-2.28-.64-.46-.13-.93-.26-1.39-.38-.58-.16-1.16-.31-1.74-.46-1.04-.27-2.08-.55-3.12-.81-.76-.19-1.53-.38-2.29-.56-.75-.18-1.5-.36-2.25-.53-.31-.07-.62-.15-.94-.22-.74-.17-1.49-.34-2.23-.5-.97-.21-1.93-.42-2.9-.63-.84-.18-1.68-.35-2.52-.52-.94-.19-1.87-.37-2.81-.55-.87-.17-1.74-.33-2.62-.49-.91-.17-1.82-.33-2.74-.48-.86-.15-1.73-.29-2.59-.43-.34-.06-.68-.11-1.02-.16-.59-.09-1.17-.18-1.76-.27-.93-.14-1.86-.28-2.79-.41-.87-.12-1.73-.24-2.6-.35-.82-.11-1.65-.22-2.47-.32-.55-.07-1.11-.13-1.66-.2-.42-.05-.84-.1-1.27-.15-.98-.11-1.96-.22-2.95-.32-.23-.02-.46-.04-.69-.07,6.71,7.16,10.82,16.78,10.82,27.37,0,0,0,.02,0,.03,0,0,0,0,0,.01,0,11.04-4.48,21.03-11.71,28.27,42.02-1.5,83.08-6.31,122.69-14.42ZM578.53,248.98V4.99c-38.79,17.94-82.2,32.34-128.97,42.43,68.31,44.66,116.71,117.24,128.97,201.56ZM475.5,38.14c35.6-9.18,68.86-20.9,99.53-34.93h-242.13c41.07,6,79.35,20.57,112.98,41.85,9.97-2.1,19.85-4.4,29.62-6.92ZM547.32,340c-10.96-21.4-26.73-42.43-26.73-42.43v166.89s16.75-22.37,26.65-42.34c9.9-19.97,16.99-41.08,16.99-41.08,0,0-5.96-19.64-16.92-41.04ZM61.01,649.11c-19.28-24.91-34.82-53.27-45.26-83.66-8.41,27.32-12.67,55.72-12.67,84.77v.02c0,1.47-.02,101.47-.02,103.18l57.93-57.69.02-46.61M61.01,476.98c-14.12,18.74-26.08,39.34-35.29,61.12-3.12,7.38-5.9,14.86-8.38,22.43,2.48,7.55,5.26,15.02,8.38,22.4,9.21,21.79,21.18,42.38,35.3,61.12v-167.07ZM14.11,560.51c-4.95-15.3-8.66-31.16-11.03-47.45v94.89c2.37-16.29,6.09-32.15,11.03-47.45M61.01,469.56c-19.27-24.89-34.79-53.23-45.23-83.6-8.43,27.35-12.7,55.78-12.7,84.87v.02c0,25.41,3.26,50.33,9.7,74.45.92,3.45,1.91,6.88,2.96,10.29,10.44-30.41,25.97-58.78,45.26-83.69v-2.34ZM14.15,381.03c-4.97-15.33-8.69-31.22-11.07-47.54v95.08c2.38-16.32,6.1-32.21,11.07-47.53M15.78,376.14c10.48-30.48,25.88-58.66,45.24-83.62,0-.36-.01-.76-.01-1.07,0,0,0,0,0-.01,0,0,0-.02,0-.02,0-116.28,86.18-212.41,198.15-228.06-42.75-1.73-83.96-6.89-122.9-15.03-2.07,1.32-4.12,2.67-6.16,4.05-.22.15-.44.3-.66.44-2.03,1.38-4.04,2.78-6.03,4.21-.09.07-.18.14-.28.2-1.9,1.37-3.78,2.76-5.65,4.18-.22.17-.45.33-.67.5-1.87,1.43-3.73,2.88-5.57,4.36-.31.25-.62.5-.92.75-1.78,1.44-3.54,2.89-5.28,4.37-.09.08-.18.15-.26.22-3.03,2.58-6,5.25-8.94,7.96-1.15,1.06-2.3,2.13-3.44,3.21-1.66,1.58-3.31,3.18-4.94,4.81-3.28,3.28-6.47,6.63-9.58,10.04-.14.16-.28.32-.43.48-1.37,1.51-2.73,3.04-4.06,4.58-.29.34-.57.67-.86,1.01-1.18,1.37-2.35,2.75-3.5,4.14-.36.44-.72.88-1.08,1.33-1.06,1.3-2.11,2.6-3.15,3.91-.4.51-.8,1.03-1.21,1.54-.98,1.25-1.94,2.51-2.9,3.78-.43.57-.85,1.14-1.27,1.7-.91,1.23-1.82,2.47-2.71,3.72-.43.61-.86,1.21-1.29,1.82-.86,1.23-1.71,2.46-2.56,3.7-.43.63-.86,1.27-1.29,1.9-.82,1.23-1.64,2.47-2.44,3.71-.42.65-.84,1.3-1.26,1.95-.8,1.26-1.58,2.52-2.36,3.78-.4.65-.8,1.3-1.2,1.95-.79,1.31-1.56,2.62-2.32,3.94-.36.62-.73,1.25-1.09,1.87-.81,1.41-1.59,2.84-2.38,4.27-.3.54-.6,1.07-.89,1.61-.94,1.74-1.85,3.48-2.76,5.24-.12.24-.25.47-.37.71-1.04,2.04-2.05,4.08-3.05,6.15-.06.12-.12.25-.18.38-1.95,4.06-3.81,8.18-5.57,12.34-.43,1.02-.83,2.04-1.25,3.06-.64,1.56-1.28,3.13-1.89,4.7-.25.65-.49,1.29-.74,1.94-.6,1.57-1.19,3.14-1.76,4.72-.24.67-.47,1.35-.71,2.03-.55,1.55-1.09,3.11-1.61,4.67-.24.73-.47,1.46-.71,2.2-.49,1.51-.98,3.02-1.44,4.53-.25.82-.49,1.64-.73,2.46-.42,1.43-.85,2.87-1.25,4.3-.26.94-.5,1.88-.75,2.81-.36,1.33-.72,2.66-1.06,3.99-.27,1.09-.53,2.18-.79,3.27-.29,1.19-.58,2.38-.85,3.57-.29,1.29-.56,2.58-.83,3.88-.21,1-.43,2-.64,3-.31,1.55-.59,3.1-.88,4.65-.14.76-.29,1.52-.42,2.28-.33,1.87-.62,3.74-.92,5.61-.07.45-.15.9-.22,1.35-.34,2.29-.66,4.58-.94,6.88,0,.04-.01.09-.02.13-.36,2.92-.68,5.84-.95,8.78-.02.19-.03.37-.05.56-.24,2.64-.44,5.29-.61,7.95-.03.44-.06.88-.08,1.31-.15,2.59-.27,5.18-.36,7.79,0,.29-.02.57-.03.86-.09,2.94-.14,5.88-.14,8.83v.02c0,25.45,3.27,50.4,9.73,74.56,0,.03.01.06.02.08.9,3.38,1.88,6.74,2.9,10.09.01.04.03.09.04.13M140.03,45.97c39.61,8.11,80.68,12.92,122.69,14.42-7.23-7.25-11.71-17.23-11.71-28.27,0,0,0,0,0-.01,0,0,0-.02,0-.03,0-10.59,4.11-20.21,10.82-27.37-.23.02-.46.04-.69.07-.98.1-1.97.21-2.95.32-.42.05-.85.1-1.27.15-.56.07-1.11.13-1.66.2-.82.1-1.65.21-2.47.32-.87.11-1.74.23-2.6.35-.93.13-1.86.27-2.79.41-.59.09-1.17.18-1.76.27-.34.05-.68.1-1.02.16-.86.14-1.73.28-2.59.43-.91.16-1.83.32-2.74.48-.87.16-1.75.32-2.62.49-.94.18-1.88.36-2.81.55-.84.17-1.68.34-2.52.52-.97.2-1.94.42-2.9.63-.74.16-1.49.33-2.23.5-.31.07-.62.15-.94.22-.75.18-1.5.35-2.25.53-.76.18-1.52.37-2.29.56-1.04.26-2.08.53-3.12.81-.58.15-1.16.31-1.74.46-.46.13-.93.26-1.4.38-.76.21-1.52.42-2.27.64-.66.19-1.33.38-1.99.57-1.15.34-2.29.68-3.44,1.03-.38.12-.77.23-1.15.35-.57.18-1.14.36-1.71.54-.88.28-1.75.56-2.62.85-.5.16-1.01.33-1.51.49-1.36.45-2.71.92-4.07,1.4-.07.03-.15.05-.22.08-.68.24-1.36.49-2.04.73-1.2.43-2.39.86-3.59,1.31-.14.05-.29.1-.43.16-1.43.54-2.85,1.1-4.27,1.66-.69.27-1.37.55-2.06.83-1.36.55-2.73,1.11-4.08,1.68-13.56,5.74-26.57,12.47-38.98,20.12M132.05,47.42C85.28,37.34,41.87,22.93,3.08,4.99v243.99C15.34,164.67,63.74,92.08,132.05,47.42M6.58,3.21c30.67,14.02,63.93,25.74,99.53,34.93,9.77,2.52,19.65,4.81,29.62,6.92C169.35,23.78,207.63,9.2,248.7,3.21H6.58ZM581.59.11h-272.72s18.52,6.63,18.52,31.98-19.82,32.74-19.84,32.75c.73.05,79.96,1.37,146.36,69.83,66.4,68.47,63.63,156.22,63.63,156.18l.02,403.97H64.05l.02-403.97s-2.77-87.72,63.63-156.18c66.4-68.47,145.63-69.78,146.36-69.83-.02-.01-19.84-7.4-19.84-32.75S272.72.13,272.74.11H.02l-.02,758.55h581.61l-.02-758.55ZM34.35,422.12c9.9,19.97,26.65,42.34,26.65,42.34v-166.89s-15.77,21.03-26.73,42.43c-10.96,21.4-16.92,41.04-16.92,41.04,0,0,7.09,21.11,16.99,41.08ZM241.14,501.15l50.69,28.87,49.31-28.87v-57.7l-49.31-28.69-50.69,28.69v57.7ZM290.51,128.31c-81.72,0-170.34,65.99-170.34,172.6,0,76.02,49.49,140.48,118.01,162.92.11-4.29-.02-22.58-.02-22.58l53.67-29.78,52.4,29.92s-.09,18.57-.09,22.44c79.66-25.72,118.82-97.58,118.82-162.92,0-101.53-90.72-172.6-172.45-172.6Z"/>
  </g>
</svg>