<?xml version="1.0" encoding="UTF-8"?>
<svg id="Capa_2" xmlns="http://www.w3.org/2000/svg" viewBox="0 0 50.35 23.51">
  <defs>
    <style>
      .cls-1 {
        fill: #d0a44a;
      }
    </style>
  </defs>
  <g id="Capa_1-2" data-name="Capa_1">
    <g>
      <path class="cls-1" d="M25.07,14.11c1.69,1.43,3.42,2.83,3.42,2.83l4.84-.03s3-1.61,4.71-2.28c1-.39,2.01-.42,2.01-.42,0,0-2.34,2.88-1.95,2.91.39.03.53-.38.97-.81.67-.66,2.88-2.22,3.14-3,.13-.39-.22-.58-1.48-.38-2.49.4-6.59,2.51-6.59,2.51l-4.86.03s-2-1.65-2.8-2.53c-.15-.16-1.22,1.28-1.4,1.18"/>
      <path class="cls-1" d="M27.9,19.32c1.93,0,8.74.02,8.74.02-.23.38-1.66,2.2-1.49,2.31.17.11.68-.55,1.12-.97.38-.36,1.9-2.21,1.46-2.54-.39-.29-6.5,0-8.43,0-.47,0-.94,1.18-1.4,1.18"/>
      <path class="cls-1" d="M28.36,21.63h5.22c.67,0-1.05,1.69-.88,1.88.7-.49.97-.7,1.51-1.36.29-.36.88-1.03.95-1.49.05-.32-2.26-.2-3.19-.2h-2.21c-.47,0-.94,1.18-1.4,1.18"/>
      <path class="cls-1" d="M37.57,20.92c1.09-2.19,3.36-4.73,5.48-5.39.61-.09,1.04-.13,2.03-.02l-1.48,1.89v3.38c.67.71,2.18,1.72,2.18,1.72,0,0,1.43-.1,2.79-.1.86-.59,1.83-2.46,1.77-2.49-.03-.01-.29.17-.78.55-.38.29-.93.68-1.46,1.27-.52.57.72-.18.26.44.47-.39.63-.55,1.1-.94-1.09,0-3.18-.02-3.18-.02l-1.4-1.06-.11-3.43,2.1-2.66s-2.29-.14-2.89.07c-1.29.45-2.53,1.49-3.37,2.2-1.78,1.52-3.4,3.65-4.45,5.77.25-.5,1.15-.67,1.4-1.18"/>
      <path class="cls-1" d="M43.08,18.15s-1.66-.29-3.24,2.09c0,0,1.44-.11,3.24-2.09"/>
      <path class="cls-1" d="M25.07,9.4c1.69-1.43,3.42-2.83,3.42-2.83l4.84.03s3,1.61,4.71,2.28c1,.39,2.01.42,2.01.42,0,0-2.34-2.88-1.95-2.91.39-.03.53.38.97.81.67.66,2.88,2.22,3.14,3,.13.39-.22.58-1.48.38-2.49-.4-6.59-2.51-6.59-2.51l-4.86-.03s-2,1.65-2.8,2.53c-.15.16-1.22-1.28-1.4-1.18"/>
      <path class="cls-1" d="M27.9,4.19c1.93,0,8.74-.02,8.74-.02-.23-.38-1.66-2.2-1.49-2.31.17-.11.68.55,1.12.97.38.36,1.9,2.21,1.46,2.54-.39.29-6.5,0-8.43,0-.47,0-.94-1.18-1.4-1.18"/>
      <path class="cls-1" d="M28.36,1.88h5.22c.67,0-1.05-1.69-.88-1.88.7.49.97.7,1.51,1.36.29.36.88,1.03.95,1.49.05.32-2.26.2-3.19.2h-2.21c-.47,0-.94-1.18-1.4-1.18"/>
      <path class="cls-1" d="M37.57,2.59c1.09,2.19,3.36,4.73,5.48,5.39.61.09,1.04.13,2.03.02l-1.48-1.89v-3.38c.67-.71,2.18-1.72,2.18-1.72,0,0,1.43.1,2.79.1.86.59,1.83,2.46,1.77,2.49-.03.01-.29-.17-.78-.55-.38-.29-.93-.68-1.46-1.27-.52-.57.72.18.26-.44.47.39.63.55,1.1.94-1.09,0-3.18.02-3.18.02l-1.4,1.06-.11,3.43,2.1,2.66s-2.29.14-2.89-.07c-1.29-.45-2.53-1.49-3.37-2.2-1.78-1.52-3.4-3.65-4.45-5.77.25.5,1.15.67,1.4,1.18"/>
      <path class="cls-1" d="M43.08,5.36s-1.66.29-3.24-2.09c0,0,1.44.11,3.24,2.09"/>
    </g>
    <g>
      <path class="cls-1" d="M25.54,10.98H1.2c-.12,0-1.18-.9-1.18-.99v-2.85C.02,5.89-.04,2.7.05,2.62c.17-.14,3.76,0,4.91,0,.4,0,.79.99,1.18.99-1.15,0-4.74-.14-4.9,0-.1.08-.03,3.26-.03,4.51v2.85c-.39-.33-.79-.66-1.18-.99h24.34c.4,0,.79.99,1.18.99"/>
      <path class="cls-1" d="M23.78,9H3.93c-.12,0-1.18-.9-1.18-.99,0-.71-.3-2.81.14-3.17.31-.25,3.4,0,3.97,0,.4,0,.79.99,1.18.99-.57,0-3.66-.25-3.97,0-.44.36-.14,2.45-.14,3.17-.39-.33-.79-.66-1.18-.99h19.85c.4,0,.79.99,1.18.99"/>
      <path class="cls-1" d="M21.85,6.44h-6.54c-1.2,0-2.49.14-3.68,0-.63-.07-.76-.2-1.3-.68-.61-.54-1.13-1.16-1.68-1.77-.33-.37-1.2-1.03-1.35-1.5-.13-.39-.14-.17.45-.21,1.27-.1,2.81-.07,3.35.18.45.21,1.43,1.24,2.18,1.94-.38-.35-.76-.67-.36-.34-.76-.5-1.52-.74-2.43-.79-.28-.01-2.16-.1-2.19.01-.05.19,1.28,1.42,1.42,1.57.48.53.44.55.91,1.07-.39-.33-.27-.15-.67-.48h10.7c.4,0,.79.99,1.18.99"/>
      <path class="cls-1" d="M16.36,5.45c-.43-.47-.85-.94-1.28-1.42-.32-.35-.63-.7-.95-1.05-.08-.09-.61-.54-.6-.66,0-.11,3.33-.03,3.77-.03.13,0,.49.4.6.49.11.09.45.5.59.5-.45,0-3.75-.11-3.77.03-.01.1.49.55.55.62.32.35.63.7.94,1.05.44.49.89.98,1.33,1.47-.34-.38-.84-.61-1.18-.99"/>
      <path class="cls-1" d="M25.54,12.53H1.2c-.12,0-1.18.9-1.18.99v2.85c0,1.25-.07,4.43.03,4.51.17.14,3.76,0,4.91,0,.4,0,.79-.99,1.18-.99-1.15,0-4.74.14-4.9,0-.1-.08-.03-3.26-.03-4.51v-2.85c-.39.33-.79.66-1.18.99h24.34c.4,0,.79-.99,1.18-.99"/>
      <path class="cls-1" d="M23.78,14.51H3.93c-.12,0-1.18.9-1.18.99,0,.71-.3,2.81.14,3.17.31.25,3.4,0,3.97,0,.4,0,.79-.99,1.18-.99-.57,0-3.66.25-3.97,0-.44-.36-.14-2.45-.14-3.17-.39.33-.79.66-1.18.99h19.85c.4,0,.79-.99,1.18-.99"/>
      <path class="cls-1" d="M21.85,17.07h-6.54c-1.2,0-2.49-.14-3.68,0-.63.07-.76.21-1.3.69-.61.54-1.13,1.16-1.68,1.77-.33.37-1.2,1.03-1.35,1.5-.13.39-.14.17.45.21,1.27.1,2.81.07,3.35-.18.45-.21,1.43-1.24,2.18-1.94-.38.35-.76.67-.36.34-.76.5-1.52.74-2.43.79-.28.01-2.16.1-2.19-.01-.05-.19,1.28-1.42,1.42-1.57.48-.53.44-.55.91-1.07-.39.33-.27.15-.67.48h10.7c.4,0,.79-.99,1.18-.99"/>
      <path class="cls-1" d="M16.36,18.06c-.43.47-.85.95-1.28,1.42-.32.35-.63.7-.95,1.05-.08.09-.61.54-.6.66,0,.11,3.33.03,3.77.03.13,0,.49-.4.6-.49.11-.09.45-.5.59-.5-.45,0-3.75.11-3.77-.03-.01-.1.49-.55.55-.62.32-.35.63-.7.94-1.05.44-.49.89-.98,1.33-1.47-.34.38-.84.61-1.18.99"/>
    </g>
  </g>
</svg>